<svg xmlns="http://www.w3.org/2000/svg" viewBox="0 0 256 256">
  <defs>
    <linearGradient id="g" x1="0" y1="0" x2="1" y2="1">
      <stop offset="0" stop-color="#6ee7ff" stop-opacity="0.95"/>
      <stop offset="1" stop-color="#2dd4bf" stop-opacity="0.90"/>
    </linearGradient>
  </defs>
  <rect x="16" y="16" width="224" height="224" rx="44" fill="rgba(255,255,255,0.06)" stroke="rgba(255,255,255,0.18)" stroke-width="6"/>
  <path d="M78 176c0-40 18-68 64-84v-16c0-9 7-16 16-16s16 7 16 16v104c0 22-18 40-40 40s-40-18-40-40c0-21 16-38 36-40 4 0 8 0 12 1V112c-30 12-44 32-44 64z" fill="url(#g)"/>
  <circle cx="118" cy="180" r="20" fill="url(#g)"/>
</svg>
